HIERARCHY
ROOT Hips
{
  OFFSET 62.6361 95.056 30.4833
  CHANNELS 6 Xposition Yposition Zposition Zrotation Xrotation Yrotation
  JOINT spine
  {
    OFFSET 0 6.84637 0.3937
    CHANNELS 3 Zrotation Xrotation Yrotation
    JOINT spine1
    {
      OFFSET 0 9.49621 0
      CHANNELS 3 Zrotation Xrotation Yrotation
      JOINT spine2
      {
        OFFSET 0 9.09909 0
        CHANNELS 3 Zrotation Xrotation Yrotation
        JOINT Neck
        {
          OFFSET 0 23.3612 1.11378
          CHANNELS 3 Zrotation Xrotation Yrotation
          JOINT Head
          {
            OFFSET 0 7.05802 0
            CHANNELS 3 Zrotation Xrotation Yrotation
            End Site
            {
              OFFSET 0 17.0844 -5.63419
            }
          }
        }
        JOINT RightShoulder
        {
          OFFSET -3.83136 9.82631 -0.533491
          CHANNELS 3 Zrotation Xrotation Yrotation
          JOINT RightArm
          {
            OFFSET 0 12.8881 0
            CHANNELS 3 Zrotation Xrotation Yrotation
            JOINT RightArmRoll
            {
              OFFSET 0 6.50617 0
              CHANNELS 3 Zrotation Xrotation Yrotation
              JOINT RightForeArm
              {
                OFFSET 0 18.9501 0
                CHANNELS 3 Zrotation Xrotation Yrotation
                JOINT RightForeArmRoll
                {
                  OFFSET 0 7.30093 0
                  CHANNELS 3 Zrotation Xrotation Yrotation
                  JOINT RightHand
                  {
                    OFFSET 0 14.6514 0
                    CHANNELS 3 Zrotation Xrotation Yrotation
                    End Site
                    {
                      OFFSET 0 0 0
                    }
                  }
                }
              }
            }
          }
        }
        JOINT LeftShoulder
        {
          OFFSET 3.83136 9.82631 -0.533491
          CHANNELS 3 Zrotation Xrotation Yrotation
          JOINT LeftArm
          {
            OFFSET 0 12.8881 0
            CHANNELS 3 Zrotation Xrotation Yrotation
            JOINT LeftArmRoll
            {
              OFFSET 0 6.50617 0
              CHANNELS 3 Zrotation Xrotation Yrotation
              JOINT LeftForeArm
              {
                OFFSET 0 18.9501 0
                CHANNELS 3 Zrotation Xrotation Yrotation
                JOINT LeftForeArmRoll
                {
                  OFFSET 0 7.30092 0
                  CHANNELS 3 Zrotation Xrotation Yrotation
                  JOINT LeftHand
                  {
                    OFFSET 0 14.6514 0
                    CHANNELS 3 Zrotation Xrotation Yrotation
                    End Site
                    {
                      OFFSET 0 0 0
                    }
                  }
                }
              }
            }
          }
        }
      }
    }
  }
  JOINT RightUpLeg
  {
    OFFSET -6.06837 -1.11278 -0.933477
    CHANNELS 3 Zrotation Xrotation Yrotation
    JOINT RightUpLegRoll
    {
      OFFSET 0 17.1796 0
      CHANNELS 3 Zrotation Xrotation Yrotation
      JOINT RightLeg
      {
        OFFSET 0 -21.2743 0
        CHANNELS 3 Zrotation Xrotation Yrotation
        JOINT RightLegRoll
        {
          OFFSET 0 21.3439 0
          CHANNELS 3 Zrotation Xrotation Yrotation
          JOINT RightFoot
          {
            OFFSET 0 17.7652 0
            CHANNELS 3 Zrotation Xrotation Yrotation
            JOINT RightToeBase
            {
              OFFSET 0 14.8508 0
              CHANNELS 3 Zrotation Xrotation Yrotation
              End Site
              {
                OFFSET 0.0062947 7.19214 -0.829004
              }
            }
          }
        }
      }
    }
  }
  JOINT LeftUpLeg
  {
    OFFSET 6.06837 -1.11278 -0.933477
    CHANNELS 3 Zrotation Xrotation Yrotation
    JOINT LeftUpLegRoll
    {
      OFFSET 0 17.1797 0
      CHANNELS 3 Zrotation Xrotation Yrotation
      JOINT LeftLeg
      {
        OFFSET 0 21.2742 0
        CHANNELS 3 Zrotation Xrotation Yrotation
        JOINT LeftLegRoll
        {
          OFFSET 0 21.5412 0
          CHANNELS 3 Zrotation Xrotation Yrotation
          JOINT LeftFoot
          {
            OFFSET 0 17.5679 0
            CHANNELS 3 Zrotation Xrotation Yrotation
            JOINT LeftToeBase
            {
              OFFSET 0 14.8508 0
              CHANNELS 3 Zrotation Xrotation Yrotation
              End Site
              {
                OFFSET -0.0282102 7.19213 -0.829005
              }
            }
          }
        }
      }
    }
  }
}
MOTION
Frames: 13
Frame Time: 0.00208333
58.3662 106.812 28.6791 0.00644959 7.32287 -0.324788 0.264749 -1.30613 0.179175 0.531779 1.39129 0.329815 0.528221 3.03632 0.321091 -15.3218 8.97688 -0.158814 12.968 2.15346 -3.38893 53.1953 -6.85134 -3.9815 111.809 -4.25461 19.0232 -1.29102e-005 -1.21393e-006 -7.88036e-006 7.33607 19.1161 -2.66926 -5.31171e-006 -2.17435e-006 -3 8.02897 -4.95154 0.697736 -53.7326 -1.52951 0.357124 -105.922 6.72967 -18.9938 -2.62889e-006 6.88643e-006 4.69222e-006 -12.3607 13.1245 1.91362 1.64565e-005 3.47467e-007 3.01284 -8.03145 -4.95139 -0.697578 174.137 15.6838 2.58674 180 7.01574e-015 179.046 176.892 13.2241 179.866 2.32334e-006 -3.04394e-006 0.138561 -16.8466 65.6445 17.7721 8.13649 25.2327 -3.48774 -173.875 13.4672 -0.262999 4.54188e-006 -4.6773e-006 -0.96633 -0.570385 -17.0617 0.50705 -3.26638e-006 7.70835e-007 -0.229742 18.7153 68.192 -19.6914 -8.13649 25.2327 3.48774 
58.3605 106.329 28.6384 -0.0316754 7.33825 -0.300443 0.273088 -1.29264 0.184939 0.548504 1.41832 0.340366 0.544836 3.06335 0.331369 -15.2264 8.95458 -0.223255 12.8793 2.02747 -3.41744 53.2592 -6.9068 -4.02306 111.756 -4.20542 18.9556 -1.29102e-005 -1.21393e-006 -7.88036e-006 7.3733 19.1578 -2.67782 -5.31171e-006 -2.17435e-006 -3 8.02897 -4.95154 0.697736 -53.912 -1.41085 0.296371 -105.817 6.81005 -19.0167 -2.62889e-006 6.88643e-006 4.69222e-006 -12.3357 13.1585 1.91546 1.64565e-005 3.47467e-007 3.01285 -8.03145 -4.95139 -0.697578 174.197 15.772 2.58225 180 7.01573e-015 179.044 176.878 13.342 179.866 2.32334e-006 -3.04394e-006 0.140424 -16.8136 65.6075 17.7483 8.13649 25.2327 -3.48774 -173.832 13.6995 -0.299323 4.54188e-006 -4.6773e-006 -0.965687 -0.56238 -17.4446 0.521421 -3.26638e-006 7.70835e-007 -0.237911 18.748 68.2356 -19.7272 -8.13649 25.2327 3.48774 
58.4324 105.831 28.444 -0.0697167 7.35468 -0.2745 0.282396 -1.27884 0.191321 0.56717 1.44599 0.352049 0.563379 3.09102 0.342747 -15.1434 8.92899 -0.287937 12.7984 1.9016 -3.44886 53.3125 -6.96699 -4.0676 111.709 -4.15389 18.8833 -1.29102e-005 -1.21393e-006 -7.88036e-006 7.41233 19.1965 -2.68636 -5.31171e-006 -2.17435e-006 -3 8.02897 -4.95154 0.697736 -54.107 -1.28494 0.232729 -105.7 6.89504 -19.0397 -2.62889e-006 6.88643e-006 4.69222e-006 -12.3118 13.1924 1.91739 1.64565e-005 3.47467e-007 3.01285 -8.03145 -4.95139 -0.697578 174.256 15.8695 2.57936 180 7.01573e-015 179.042 176.864 13.4744 179.865 2.32334e-006 -3.04394e-006 0.142546 -16.7805 65.5708 17.7248 8.13649 25.2327 -3.48774 -173.791 13.9432 -0.337633 4.54188e-006 -4.6773e-006 -0.965072 -0.555942 -17.8473 0.536144 -3.26638e-006 7.70835e-007 -0.246419 18.7811 68.2797 -19.7634 -8.13649 25.2327 3.48774 
58.3948 105.386 28.4452 -0.108222 7.37319 -0.247597 0.29269 -1.26497 0.198145 0.587806 1.47378 0.364509 0.583886 3.1188 0.35487 -15.0731 8.8988 -0.352542 12.7255 1.77873 -3.48292 53.3556 -7.02995 -4.11373 111.671 -4.10009 18.8077 -1.29102e-005 -1.21393e-006 -7.88036e-006 7.45214 19.2324 -2.69476 -5.31171e-006 -2.17435e-006 -3 8.02897 -4.95154 0.697736 -54.317 -1.15318 0.167233 -105.57 6.9836 -19.0622 -2.62889e-006 6.88643e-006 4.69222e-006 -12.2896 13.2271 1.9196 1.64565e-005 3.47467e-007 3.01285 -8.03145 -4.95139 -0.697578 174.315 15.9791 2.57642 180 7.01573e-015 179.04 176.85 13.6251 179.863 2.32334e-006 -3.04394e-006 0.144993 -16.7486 65.5356 17.7025 8.13649 25.2327 -3.48774 -173.75 14.1974 -0.379104 4.54188e-006 -4.6773e-006 -0.964519 -0.551654 -18.2668 0.550951 -3.26638e-006 7.70835e-007 -0.255167 18.8137 68.3232 -19.7993 -8.13649 25.2327 3.48774 
58.4324 104.878 28.3382 -0.147742 7.39478 -0.220372 0.303986 -1.25132 0.205235 0.610443 1.50117 0.377392 0.606391 3.14618 0.367383 -15.0152 8.86274 -0.416747 12.6608 1.66173 -3.51936 53.3885 -7.09372 -4.16009 111.641 -4.04409 18.73 -1.29102e-005 -1.21393e-006 -7.88036e-006 7.49171 19.2656 -2.7029 -5.31171e-006 -2.17435e-006 -3 8.02897 -4.95154 0.697736 -54.5409 -1.01698 0.100918 -105.427 7.07466 -19.0837 -2.62889e-006 6.88643e-006 4.69222e-006 -12.2699 13.2633 1.92229 1.64565e-005 3.47467e-007 3.01285 -8.03145 -4.95139 -0.697578 174.375 16.104 2.57178 180 7.01572e-015 179.039 176.838 13.7981 179.861 2.32334e-006 -3.04394e-006 0.14783 -16.7189 65.5035 17.6823 8.13649 25.2327 -3.48774 -173.708 14.4615 -0.42492 4.54188e-006 -4.6773e-006 -0.964057 -0.55011 -18.6999 0.565569 -3.26638e-006 7.70835e-007 -0.264052 18.8451 68.3649 -19.8339 -8.13649 25.2327 3.48774 
58.4322 104.377 28.2967 -0.188825 7.42046 -0.193464 0.316301 -1.23813 0.212412 0.635116 1.52762 0.390344 0.630931 3.17263 0.379932 -14.97 8.81951 -0.48023 12.6045 1.55348 -3.55793 53.4115 -7.15636 -4.20528 111.62 -3.98595 18.6516 -1.29102e-005 -1.21393e-006 -7.88036e-006 7.53001 19.2962 -2.71064 -5.31171e-006 -2.17435e-006 -3 8.02897 -4.95154 0.697736 -54.7782 -0.877773 0.0348146 -105.272 7.16715 -19.1035 -2.62889e-006 6.88643e-006 4.69222e-006 -12.2533 13.302 1.92567 1.64565e-005 3.47467e-007 3.01286 -8.03145 -4.95139 -0.697578 174.437 16.2471 2.56376 180 7.01572e-015 179.037 176.829 13.9973 179.859 2.32334e-006 -3.04394e-006 0.151122 -16.6926 65.4759 17.665 8.13649 25.2327 -3.48774 -173.664 14.7347 -0.47627 4.54188e-006 -4.6773e-006 -0.96372 -0.551916 -19.1434 0.579722 -3.26638e-006 7.70834e-007 -0.272976 18.8744 68.4039 -19.8663 -8.13649 25.2327 3.48774 
58.4271 103.886 28.2619 -0.232024 7.45125 -0.167511 0.329652 -1.22567 0.219501 0.661856 1.55262 0.403011 0.657545 3.19761 0.392159 -14.9373 8.76783 -0.54267 12.5568 1.45684 -3.59835 53.4248 -7.2159 -4.24792 111.61 -3.92577 18.5737 -1.29102e-005 -1.21393e-006 -7.88036e-006 7.56603 19.3242 -2.71788 -5.31171e-006 -2.17435e-006 -3 8.02897 -4.95154 0.697736 -55.0278 -0.736963 -0.0300433 -105.105 7.26003 -19.121 -2.62889e-006 6.88643e-006 4.69222e-006 -12.2404 13.3439 1.92992 1.64565e-005 3.47467e-007 3.01286 -8.03145 -4.95139 -0.697578 174.503 16.4115 2.5507 180 7.01571e-015 179.035 176.824 14.2268 179.856 2.32334e-006 -3.04394e-006 0.154936 -16.6709 65.454 17.6516 8.13649 25.2327 -3.48774 -173.617 15.0164 -0.534352 4.54188e-006 -4.6773e-006 -0.963538 -0.557691 -19.5941 0.59313 -3.26638e-006 7.70834e-007 -0.281837 18.9008 68.4392 -19.8955 -8.13649 25.2327 3.48774 
58.488 103.409 28.2205 -0.277889 7.48817 -0.14315 0.344057 -1.2142 0.226324 0.690699 1.57563 0.415038 0.686271 3.22062 0.403712 -14.9172 8.7064 -0.603742 12.5181 1.37469 -3.64037 53.4287 -7.2704 -4.28663 111.611 -3.8636 18.4976 -1.29102e-005 -1.21393e-006 -7.88036e-006 7.59873 19.3498 -2.72447 -5.31171e-006 -2.17435e-006 -3 8.02897 -4.95154 0.697736 -55.2892 -0.595966 -0.0926236 -104.926 7.35224 -19.1356 -2.62889e-006 6.88643e-006 4.69222e-006 -12.2319 13.39 1.93524 1.64565e-005 3.47467e-007 3.01286 -8.03145 -4.95139 -0.697578 174.572 16.6002 2.53092 180 7.01571e-015 179.033 176.824 14.4905 179.852 2.32334e-006 -3.04394e-006 0.159336 -16.6549 65.4393 17.6428 8.13649 25.2327 -3.48774 -173.567 15.3059 -0.600372 4.54188e-006 -4.6773e-006 -0.963543 -0.568066 -20.0488 0.605506 -3.26638e-006 7.70834e-007 -0.290534 18.9234 68.4695 -19.9208 -8.13649 25.2327 3.48774 
58.4851 102.893 28.1696 -0.326971 7.53221 -0.121019 0.359534 -1.20398 0.232705 0.72168 1.59615 0.426071 0.717148 3.24113 0.414234 -14.9097 8.63395 -0.663125 12.4884 1.30989 -3.68372 53.4232 -7.31789 -4.32002 111.624 -3.79954 18.4247 -1.29102e-005 -1.21393e-006 -7.88036e-006 7.6271 19.373 -2.7303 -5.31171e-006 -2.17435e-006 -3 8.02897 -4.95154 0.697736 -55.5615 -0.456197 -0.151894 -104.735 7.44272 -19.1468 -2.62889e-006 6.88643e-006 4.69222e-006 -12.2284 13.4411 1.94184 1.64565e-005 3.47467e-007 3.01286 -8.03145 -4.95139 -0.697578 174.647 16.8162 2.50274 180 7.01571e-015 179.032 176.829 14.7922 179.846 2.32334e-006 -3.04394e-006 0.164389 -16.6456 65.4332 17.6396 8.13649 25.2327 -3.48774 -173.512 15.6025 -0.675542 4.54188e-006 -4.6773e-006 -0.963766 -0.583689 -20.5045 0.616558 -3.26638e-006 7.70834e-007 -0.298966 18.9414 68.494 -19.9412 -8.13649 25.2327 3.48774 
58.5165 102.421 28.1226 -0.379819 7.58441 -0.101758 0.376099 -1.19527 0.238466 0.754836 1.61364 0.435756 0.750218 3.25861 0.423371 -14.9149 8.54919 -0.720494 12.4682 1.26533 -3.72814 53.4088 -7.35643 -4.3467 111.65 -3.73365 18.3563 -1.29102e-005 -1.21393e-006 -7.88036e-006 7.65012 19.394 -2.73525 -5.31171e-006 -2.17435e-006 -3 8.02897 -4.95154 0.697736 -55.844 -0.319072 -0.206823 -104.533 7.53043 -19.1539 -2.62889e-006 6.88643e-006 4.69222e-006 -12.2307 13.498 1.94992 1.64565e-005 3.47467e-007 3.01287 -8.03145 -4.95139 -0.697578 174.729 17.0625 2.46444 180 7.01571e-015 179.031 176.842 15.1361 179.84 2.32334e-006 -3.04394e-006 0.17016 -16.6442 65.4371 17.6428 8.13649 25.2327 -3.48774 -173.45 15.9053 -0.761089 4.54188e-006 -4.6773e-006 -0.964239 -0.605217 -20.9578 0.625988 -3.26638e-006 7.70834e-007 -0.307034 18.954 68.5115 -19.9556 -8.13649 25.2327 3.48774 
58.4695 101.937 28.2101 -0.436978 7.64577 -0.0860052 0.393772 -1.18834 0.243431 0.790203 1.62758 0.443738 0.785521 3.27253 0.430766 -14.9326 8.45082 -0.775526 12.4576 1.24387 -3.77336 53.3856 -7.38407 -4.36529 111.69 -3.66604 18.2935 -1.29102e-005 -1.21393e-006 -7.88036e-006 7.66676 19.4127 -2.73918 -5.31171e-006 -2.17435e-006 -3 8.02897 -4.95154 0.697736 -56.136 -0.186006 -0.256377 -104.319 7.61431 -19.1563 -2.62889e-006 6.88643e-006 4.69222e-006 -12.2394 13.5615 1.95968 1.64565e-005 3.47467e-007 3.01287 -8.03145 -4.95139 -0.697578 174.818 17.3421 2.41432 180 7.0157e-015 179.03 176.862 15.5261 179.832 2.32334e-006 -3.04394e-006 0.176714 -16.6519 65.4523 17.6533 8.13649 25.2327 -3.48774 -173.381 16.2138 -0.858245 4.54188e-006 -4.6773e-006 -0.964993 -0.63332 -21.4057 0.633491 -3.26638e-006 7.70834e-007 -0.314636 18.9602 68.521 -19.9633 -8.13649 25.2327 3.48774 
58.4776 101.44 28.1283 -0.498989 7.7173 -0.0743993 0.41257 -1.18344 0.247422 0.827818 1.63744 0.449663 0.823098 3.28239 0.436065 -14.9631 8.33757 -0.8279 12.457 1.24837 -3.81912 53.3538 -7.39886 -4.37439 111.745 -3.59678 18.2379 -1.29102e-005 -1.21393e-006 -7.88036e-006 7.67599 19.4294 -2.74199 -5.31171e-006 -2.17435e-006 -3 8.02897 -4.95154 0.697736 -56.4368 -0.0584122 -0.299525 -104.093 7.69332 -19.1534 -2.62889e-006 6.88643e-006 4.69222e-006 -12.2551 13.6327 1.97131 1.64565e-005 3.47467e-007 3.01287 -8.03145 -4.95139 -0.697578 174.916 17.6581 2.35064 180 7.0157e-015 179.029 176.892 15.966 179.822 2.32334e-006 -3.04394e-006 0.184117 -16.6699 65.4802 17.672 8.13649 25.2327 -3.48774 -173.304 16.5272 -0.968255 4.54188e-006 -4.6773e-006 -0.96606 -0.668681 -21.8449 0.638757 -3.26638e-006 7.70834e-007 -0.321672 18.9592 68.5214 -19.9633 -8.13649 25.2327 3.48774 
58.4925 100.941 28.0878 -0.568309 7.79639 -0.0650512 0.433582 -1.18026 0.250587 0.869862 1.64388 0.453699 0.865129 3.28881 0.439399 -15.0208 8.20547 -0.876222 12.4791 1.29182 -3.86774 53.3082 -7.4004 -4.37349 111.818 -3.53003 18.1889 -1.29102e-005 -1.21393e-006 -7.88036e-006 7.67932 19.4452 -2.74402 -5.31171e-006 -2.17435e-006 -3 8.02897 -4.95154 0.697736 -56.7598 0.0703535 -0.338719 -103.843 7.76452 -19.1455 -2.62889e-006 6.88643e-006 4.69222e-006 -12.2805 13.7144 1.9855 1.64565e-005 3.47467e-007 3.01288 -8.03145 -4.95139 -0.697578 175.027 18.0112 2.26572 180 7.0157e-015 179.029 176.936 16.4532 179.809 2.32334e-006 -3.04394e-006 0.191691 -16.6948 65.5141 17.6948 8.13485 25.2083 -3.48707 -173.214 16.8408 -1.09226 4.54188e-006 -4.6773e-006 -0.967719 -0.710946 -22.2655 0.64341 -3.26638e-006 7.70834e-007 -0.32706 18.9379 68.4952 -19.941 -8.13516 25.2129 3.49047 
